<svg width="649.256" xmlns="http://www.w3.org/2000/svg" height="644.795" viewBox="-5516.458 22.034 649.256 644.795" fill="none"><path d="M-5203.500,358.100C-5236.200,362.500,-5267.600,376.900,-5295.500,400.200C-5307.600,410.300,-5316.700,420.700,-5329.700,439.300C-5360.100,482.600,-5378.100,521.200,-5389.700,568.000C-5393.800,584.200,-5394.400,587.900,-5394.400,597.500C-5394.400,606.300,-5394.000,610.000,-5392.100,616.000C-5384.800,639.500,-5369.400,656.000,-5348.700,662.500C-5342.200,664.600,-5338.900,665.000,-5328.600,665.000C-5307.500,665.000,-5295.300,662.000,-5254.100,646.500C-5216.600,632.500,-5208.700,630.300,-5186.500,627.900C-5156.900,624.700,-5136.700,629.100,-5090.300,648.900C-5051.600,665.300,-5042.800,667.700,-5025.000,666.600C-5006.400,665.500,-4992.900,659.900,-4981.400,648.500C-4968.700,636.000,-4964.300,622.700,-4965.300,600.500C-4966.800,568.600,-4982.900,532.200,-5020.400,476.000C-5050.600,430.600,-5077.900,401.100,-5108.600,380.700C-5125.200,369.700,-5139.700,363.400,-5157.300,359.500C-5166.000,357.600,-5193.600,356.700,-5203.500,358.100ZM-5090.500,23.500C-5130.400,34.300,-5160.800,72.700,-5171.500,125.800C-5180.800,171.900,-5173.500,212.100,-5150.700,240.900C-5134.900,260.800,-5109.300,271.600,-5089.200,266.900C-5081.700,265.100,-5067.000,257.600,-5058.400,251.200C-5035.100,233.700,-5017.600,206.100,-5009.400,174.000C-5004.900,156.400,-5003.700,144.300,-5004.300,124.000C-5005.100,96.500,-5008.000,82.800,-5016.700,65.800C-5025.300,49.000,-5036.900,36.600,-5050.900,29.200C-5063.900,22.400,-5078.600,20.300,-5090.500,23.500ZM-5323.600,25.500C-5346.300,29.600,-5368.100,51.100,-5377.800,79.000C-5385.900,102.200,-5386.400,139.900,-5379.100,168.700C-5366.800,216.700,-5339.000,251.400,-5301.500,265.500C-5293.400,268.600,-5282.000,269.200,-5273.000,267.100C-5244.900,260.400,-5223.900,234.600,-5215.900,196.700C-5213.300,184.700,-5212.800,158.300,-5214.900,144.000C-5223.000,87.800,-5251.400,45.300,-5291.400,29.400C-5297.900,26.800,-5312.500,23.600,-5315.800,24.100C-5316.200,24.100,-5319.700,24.800,-5323.600,25.500ZM-4935.500,216.100C-4980.400,222.100,-5018.700,262.400,-5032.400,318.000C-5036.200,333.700,-5038.100,352.500,-5037.000,364.300C-5034.900,386.500,-5027.100,405.500,-5014.500,418.800C-4999.400,434.800,-4983.800,440.200,-4963.000,436.600C-4920.500,429.200,-4883.100,387.100,-4871.100,333.300C-4868.300,320.800,-4866.600,301.400,-4867.400,290.400C-4869.400,261.600,-4884.200,234.600,-4904.500,222.900C-4913.800,217.500,-4926.100,214.800,-4935.500,216.100ZM-5466.000,230.600C-5482.700,234.100,-5498.600,246.100,-5506.300,260.800C-5516.400,280.000,-5519.300,311.500,-5513.500,339.600C-5509.300,359.900,-5498.300,384.400,-5486.400,400.300C-5461.700,433.100,-5422.400,453.200,-5395.000,446.900C-5385.900,444.800,-5377.900,439.900,-5369.000,431.000C-5353.100,415.200,-5347.000,397.400,-5346.800,367.000C-5346.700,334.900,-5356.900,304.200,-5376.800,277.000C-5384.200,266.900,-5399.800,251.700,-5409.400,245.300C-5430.700,230.900,-5447.400,226.600,-5466.000,230.600Z" style="fill: rgb(6, 69, 253); fill-opacity: 1;" class="fills"/></svg>